<svg width="31" height="31" viewBox="0 0 31 31" fill="none" xmlns="http://www.w3.org/2000/svg">
<path d="M15.9214 30.9216C7.63644 30.9216 0.921387 24.2066 0.921387 15.9216C0.921387 7.63668 7.63644 0.921631 15.9214 0.921631C24.2051 0.921631 30.9214 7.63668 30.9214 15.9216C30.9214 24.2066 24.2051 30.9216 15.9214 30.9216ZM11.1058 8.06976C10.0701 8.06976 9.23039 9.18853 9.23039 10.5696C9.23039 11.9506 10.0689 13.0694 11.1058 13.0694C12.1404 13.0694 12.9813 11.9494 12.9813 10.5696C12.9813 9.18733 12.1404 8.06976 11.1058 8.06976ZM10.9278 18.798L10.3023 19.8806L14.704 22.4226L10.2229 25.0078L10.8484 26.0892L15.9539 23.1431L21.0593 26.0892L21.6849 25.0078L17.2038 22.4226L21.6055 19.8806L20.9799 18.798L15.9527 21.7008L10.9278 18.798ZM20.7899 8.07938C19.7565 8.07938 18.9156 9.19936 18.9156 10.5792C18.9156 11.959 19.7553 13.079 20.7899 13.079C21.8256 13.079 22.6665 11.9602 22.6665 10.5792C22.6653 9.19936 21.8256 8.07938 20.7899 8.07938Z" fill="white"/>
</svg>
